<?xml version="1.0" standalone="no"?>
<!DOCTYPE svg PUBLIC "-//W3C//DTD SVG 20010904//EN"
 "http://www.w3.org/TR/2001/REC-SVG-20010904/DTD/svg10.dtd">
<svg version="1.0" xmlns="http://www.w3.org/2000/svg"
 width="512.000000pt" height="512.000000pt" viewBox="0 0 512.000000 512.000000"
 preserveAspectRatio="xMidYMid meet">

<g transform="translate(0.000000,512.000000) scale(0.100000,-0.100000)"
fill="#000000" stroke="none">
<path d="M320 4627 c-49 -16 -133 -102 -148 -153 -18 -60 -18 -3768 0 -3828
16 -55 99 -138 154 -154 32 -9 473 -12 1916 -12 2115 0 1933 -7 2011 80 24 26
49 66 55 88 9 29 12 229 12 746 l0 707 284 492 c295 509 316 553 316 658 0 68
-34 167 -79 230 -110 153 -322 209 -483 128 l-38 -19 0 421 c0 297 -4 433 -12
461 -6 22 -31 62 -55 88 -78 87 106 80 -2017 79 -1341 -1 -1891 -4 -1916 -12z
m3815 -172 c25 -24 25 -24 25 -240 l0 -215 -1920 0 -1920 0 0 215 c0 216 0
216 25 240 l24 25 1871 0 1871 0 24 -25z m25 -824 l0 -208 -341 -592 -342
-591 -674 0 -674 0 -24 -25 -25 -24 0 -511 0 -511 25 -24 24 -25 456 0 455 0
0 -26 c0 -57 25 -109 75 -160 58 -59 117 -80 195 -71 97 12 141 50 225 197
l58 101 131 67 131 67 146 253 c81 139 149 256 153 259 3 4 6 -247 6 -556 l0
-562 -25 -24 -24 -25 -1871 0 -1871 0 -24 25 -25 24 0 1576 0 1575 1920 0
1920 0 0 -209z m426 -156 c107 -32 168 -115 169 -230 0 -61 -4 -77 -32 -125
-17 -31 -37 -54 -45 -52 -30 7 -398 225 -398 236 1 22 60 105 95 132 33 25
106 52 146 53 8 1 38 -6 65 -14z m-164 -449 l186 -108 -20 -34 c-18 -30 -22
-32 -41 -22 -34 18 -381 220 -386 224 -3 3 3 20 13 40 16 34 18 35 39 22 12
-8 106 -63 209 -122z m-114 -211 c94 -55 172 -103 172 -109 0 -11 -648 -1136
-665 -1155 -11 -11 -24 -7 -79 24 -61 34 -65 38 -54 58 6 12 141 246 299 520
l287 498 -36 23 c-20 13 -51 30 -69 40 -31 16 -33 16 -47 -6 -7 -13 -141 -243
-296 -513 -155 -269 -284 -492 -287 -495 -4 -4 -85 38 -124 64 -14 10 -3 35
91 196 59 102 212 366 340 588 l232 403 32 -19 c17 -10 109 -62 204 -117z
m-928 -739 c0 -3 -46 -85 -103 -183 -57 -98 -106 -185 -109 -194 -4 -10 -2
-79 3 -154 l10 -137 -36 -64 -36 -64 -434 0 -435 0 0 400 0 400 570 0 c314 0
570 -2 570 -4z m142 -562 c101 -59 185 -108 187 -110 2 -2 -35 -22 -82 -45
l-85 -42 -100 58 c-99 57 -100 58 -106 103 -7 51 -8 142 -2 142 3 0 87 -48
188 -106z m-156 -280 l64 -36 -18 -31 c-11 -18 -32 -53 -47 -80 -30 -52 -50
-67 -90 -67 -33 0 -75 42 -75 75 0 27 79 175 93 175 5 0 38 -16 73 -36z"/>
<path d="M640 4240 l0 -80 80 0 80 0 0 80 0 80 -80 0 -80 0 0 -80z"/>
<path d="M960 4240 l0 -80 80 0 80 0 0 80 0 80 -80 0 -80 0 0 -80z"/>
<path d="M1280 4240 l0 -80 80 0 80 0 0 80 0 80 -80 0 -80 0 0 -80z"/>
<path d="M665 3495 l-25 -24 0 -431 0 -431 25 -24 24 -25 511 0 511 0 24 25
25 24 0 431 0 431 -25 24 -24 25 -511 0 -511 0 -24 -25z m935 -455 l0 -320
-400 0 -400 0 0 320 0 320 400 0 400 0 0 -320z"/>
<path d="M2080 3440 l0 -80 160 0 160 0 0 80 0 80 -160 0 -160 0 0 -80z"/>
<path d="M2560 3440 l0 -80 640 0 640 0 0 80 0 80 -640 0 -640 0 0 -80z"/>
<path d="M2080 3120 l0 -80 880 0 880 0 0 80 0 80 -880 0 -880 0 0 -80z"/>
<path d="M2080 2800 l0 -80 400 0 400 0 0 80 0 80 -400 0 -400 0 0 -80z"/>
<path d="M3040 2800 l0 -80 240 0 240 0 0 80 0 80 -240 0 -240 0 0 -80z"/>
<path d="M640 2160 l0 -80 560 0 560 0 0 80 0 80 -560 0 -560 0 0 -80z"/>
<path d="M640 1840 l0 -80 560 0 560 0 0 80 0 80 -560 0 -560 0 0 -80z"/>
<path d="M640 1520 l0 -80 560 0 560 0 0 80 0 80 -560 0 -560 0 0 -80z"/>
<path d="M640 1200 l0 -80 560 0 560 0 0 80 0 80 -560 0 -560 0 0 -80z"/>
</g>
</svg>
