<?xml version="1.0" encoding="UTF-8"?>
<svg version="1.1" xmlns="http://www.w3.org/2000/svg" width="108" height="143">
<path d="M0 0 C35.64 0 71.28 0 108 0 C108 47.19 108 94.38 108 143 C72.36 143 36.72 143 0 143 C0 95.81 0 48.62 0 0 Z " fill="#5A92CC" transform="translate(0,0)"/>
<path d="M0 0 C35.64 0 71.28 0 108 0 C108 47.19 108 94.38 108 143 C90.51 143 73.02 143 55 143 C57.04614146 141.4653939 59.09477913 139.93302727 61.18359375 138.45703125 C69.90516574 132.09345793 72.49528154 126.51415539 76 116 C84.58 116 93.16 116 102 116 C102 83 102 50 102 16 C69.66 16 37.32 16 4 16 C4 48.67 4 81.34 4 115 C12.58 115 21.16 115 30 115 C31.32 118.96 32.64 122.92 34 127 C38.24973554 133.62958744 42.1474079 137.19831124 49.05859375 140.90625 C50.01958984 141.44765625 50.01958984 141.44765625 51 142 C51 142.33 51 142.66 51 143 C34.17 143 17.34 143 0 143 C0 95.81 0 48.62 0 0 Z " fill="#FEFEFE" transform="translate(0,0)"/>
<path d="M0 0 C4.53786224 2.26893112 5.94678157 4.09866534 9 8 C7.66666667 11.33333333 6.33333333 14.66666667 5 18 C5.99 18.33 6.98 18.66 8 19 C8.33 20.98 8.66 22.96 9 25 C9.99 25 10.98 25 12 25 C12.39832031 26.15628906 12.39832031 26.15628906 12.8046875 27.3359375 C13.15789062 28.33882812 13.51109375 29.34171875 13.875 30.375 C14.22304687 31.37273437 14.57109375 32.37046875 14.9296875 33.3984375 C15.84782502 36.10442118 15.84782502 36.10442118 18 38 C18.61976946 40.5479411 19.01626869 43.09993624 19.4375 45.6875 C19.83093987 48.17757117 19.83093987 48.17757117 22 50 C23.22783059 53.68349176 23.61710235 57.35048176 24.0625 61.1875 C24.15337891 61.91775391 24.24425781 62.64800781 24.33789062 63.40039062 C25.72306732 75.15877028 24.84167939 84.97948206 17.8125 94.890625 C14.6820173 98.53385918 11.00460997 101.37151964 7 104 C6.37351562 104.41378906 5.74703125 104.82757813 5.1015625 105.25390625 C2.06604452 106.33157155 0.08604382 105.8226826 -3 105 C-12.00682736 100.26317768 -17.76707841 93.80821166 -21.375 84.375 C-23.47169193 77.5997393 -23.37424297 71.02745126 -23 64 C-22.34 64 -21.68 64 -21 64 C-21.02320312 63.443125 -21.04640625 62.88625 -21.0703125 62.3125 C-21.20011024 56.82390985 -20.53328434 52.2706649 -19 47 C-18.34 47 -17.68 47 -17 47 C-16.93941406 46.37351563 -16.87882812 45.74703125 -16.81640625 45.1015625 C-16.73261719 44.28429687 -16.64882813 43.46703125 -16.5625 42.625 C-16.48128906 41.81289062 -16.40007813 41.00078125 -16.31640625 40.1640625 C-16 38 -16 38 -15 36 C-14.34 36 -13.68 36 -13 36 C-12.87625 35.113125 -12.7525 34.22625 -12.625 33.3125 C-12.05587264 30.29612498 -11.23385564 27.79673946 -10 25 C-9.01 25 -8.02 25 -7 25 C-6.855625 24.21625 -6.71125 23.4325 -6.5625 22.625 C-6 20 -6 20 -5 18 C-4.34 18 -3.68 18 -3 18 C-3.495 17.05125 -3.99 16.1025 -4.5 15.125 C-6 12 -6 12 -6 10 C-6.66 9.67 -7.32 9.34 -8 9 C-5.36 6.03 -2.72 3.06 0 0 Z " fill="#52BE90" transform="translate(52,37)"/>
<path d="M0 0 C0.33 0 0.66 0 1 0 C1 24.09 1 48.18 1 73 C-4.61 73 -10.22 73 -16 73 C-16.875 64.75 -16.875 64.75 -17.13623047 62.17089844 C-17.55686568 58.41630679 -17.91682482 55.25605532 -20 52 C-20.33 52 -20.66 52 -21 52 C-21.12117188 51.21753906 -21.24234375 50.43507812 -21.3671875 49.62890625 C-21.53476563 48.61699219 -21.70234375 47.60507813 -21.875 46.5625 C-22.03742188 45.55316406 -22.19984375 44.54382813 -22.3671875 43.50390625 C-22.68042969 42.26447266 -22.68042969 42.26447266 -23 41 C-23.66 40.67 -24.32 40.34 -25 40 C-25.8515625 37.27734375 -25.8515625 37.27734375 -26.625 33.9375 C-27.01558594 32.28041016 -27.01558594 32.28041016 -27.4140625 30.58984375 C-27.60742188 29.73519531 -27.80078125 28.88054688 -28 28 C-28.99 28 -29.98 28 -31 28 C-31.28875 27.030625 -31.5775 26.06125 -31.875 25.0625 C-32.64214682 21.89335797 -32.64214682 21.89335797 -35 21 C-34.45276317 17.62537285 -33.9451 15.91765 -32 13 C-28.62413406 13.56642655 -27.20600525 14.48813922 -25.0546875 17.125 C-24.53519531 17.74890625 -24.01570313 18.3728125 -23.48046875 19.015625 C-22.95066406 19.67046875 -22.42085937 20.3253125 -21.875 21 C-20.81277209 22.29403305 -19.7477936 23.58581459 -18.6796875 24.875 C-18.21288574 25.44992188 -17.74608398 26.02484375 -17.26513672 26.6171875 C-16.02783005 28.13526589 -16.02783005 28.13526589 -14 29 C-13.72816895 28.12585449 -13.45633789 27.25170898 -13.17626953 26.35107422 C-12.06107159 23.17398685 -10.75003128 20.35644222 -9.1796875 17.3828125 C-8.37724609 15.85527344 -8.37724609 15.85527344 -7.55859375 14.296875 C-7.00300781 13.25015625 -6.44742188 12.2034375 -5.875 11.125 C-5.31167969 10.05507813 -4.74835938 8.98515625 -4.16796875 7.8828125 C-2.78265261 5.25305983 -1.39322404 2.62556917 0 0 Z " fill="#F9FBFC" transform="translate(92,34)"/>
<path d="M0 0 C3.27216113 1.63608056 4.21604184 5.13149415 5.75 8.3125 C6.46348215 9.76695628 7.17702446 11.22138305 7.890625 12.67578125 C8.42139648 13.76560303 8.42139648 13.76560303 8.96289062 14.87744141 C10.45398124 17.92912262 11.97669529 20.96427133 13.5 24 C14.33333333 25.66666667 15.16666667 27.33333333 16 29 C20.42978284 24.71892011 24.14935931 20.09374574 27.9140625 15.23046875 C28.60242188 14.49441406 29.29078125 13.75835937 30 13 C30.99 13 31.98 13 33 13 C35.10770759 15.88834003 36 17.38462395 36 21 C35.34 21 34.68 21 34 21 C33.34 23.31 32.68 25.62 32 28 C31.01 28 30.02 28 29 28 C28.87625 28.70125 28.7525 29.4025 28.625 30.125 C27.96161655 33.17656387 27.02788045 36.05340938 26 39 C25.34 39 24.68 39 24 39 C23.34 42.63 22.68 46.26 22 50 C21.34 50 20.68 50 20 50 C19.34 55.61 18.68 61.22 18 67 C17.34 67 16.68 67 16 67 C16 68.98 16 70.96 16 73 C10.72 73 5.44 73 0 73 C0 48.91 0 24.82 0 0 Z " fill="#F8FBFC" transform="translate(13,34)"/>
<path d="M0 0 C0.74886475 0.00523682 1.49772949 0.01047363 2.26928711 0.01586914 C3.07817383 0.0190918 3.88706055 0.02231445 4.72045898 0.02563477 C5.5705957 0.03401367 6.42073242 0.04239258 7.29663086 0.05102539 C8.15063477 0.05553711 9.00463867 0.06004883 9.88452148 0.06469727 C12.00108749 0.07652166 14.11761771 0.0944577 16.23413086 0.11352539 C14.78870161 3.91006424 13.07749294 7.47180376 11.19506836 11.07055664 C10.61499023 12.18237305 10.03491211 13.29418945 9.43725586 14.43969727 C8.83397461 15.59018555 8.23069336 16.74067383 7.60913086 17.92602539 C6.99811523 19.09584961 6.38709961 20.26567383 5.75756836 21.47094727 C4.2518812 24.35292659 2.74399811 27.23373444 1.23413086 30.11352539 C-2.6804233 28.31607881 -4.8944302 26.03577139 -7.76586914 22.80102539 C-8.61149414 21.85614258 -9.45711914 20.91125977 -10.32836914 19.93774414 C-16.76586914 12.47891001 -16.76586914 12.47891001 -16.76586914 10.11352539 C-14.48048942 8.50638739 -12.20408652 7.01247253 -9.82836914 5.55102539 C-1.04953699 0.06747334 -1.04953699 0.06747334 0 0 Z " fill="#F9FBFD" transform="translate(75.765869140625,24.886474609375)"/>
<path d="M0 0 C12.26432699 -1.35102745 19.4604478 0.26617451 29.31640625 7.8125 C30.20199219 8.534375 31.08757813 9.25625 32 10 C28.51087494 17.88764974 21.86689804 24.89384504 15 30 C11.05832999 24.08749499 7.88171761 17.92262764 4.76757812 11.54882812 C3.30743478 8.56853554 1.84397592 5.76596388 0 3 C0 2.01 0 1.02 0 0 Z " fill="#FAFBFD" transform="translate(15,25)"/>
<path d="M0 0 C8.58 0 17.16 0 26 0 C23.28424034 2.71575966 21.16291403 4.7998714 18.0625 6.875 C17.41410156 7.32617188 16.76570313 7.77734375 16.09765625 8.2421875 C14 9 14 9 11.546875 8.32421875 C8.97877331 6.98896342 6.58646805 5.55670398 4.1875 3.9375 C3.39730469 3.41027344 2.60710938 2.88304687 1.79296875 2.33984375 C1.20128906 1.89769531 0.60960937 1.45554687 0 1 C0 0.67 0 0.34 0 0 Z " fill="#EEF3F9" transform="translate(40,25)"/>
<path d="M0 0 C0.99 0.66 1.98 1.32 3 2 C1.44520548 6.66438356 1.44520548 6.66438356 -1.03125 8.53125 C-4.11602138 12.39945538 -3.67586566 16.43800762 -3.75 21.25 C-3.77964844 22.18585938 -3.80929688 23.12171875 -3.83984375 24.0859375 C-3.91039804 26.39071092 -3.96316252 28.69448168 -4 31 C-4.33 31 -4.66 31 -5 31 C-5 24.07 -5 17.14 -5 10 C-5.99 10.33 -6.98 10.66 -8 11 C-8.99 9.68 -9.98 8.36 -11 7 C-10.34 5.68 -9.68 4.36 -9 3 C-8.38125 3.7115625 -8.38125 3.7115625 -7.75 4.4375 C-5.817815 6.16266518 -4.51807725 6.56584875 -2 7 C-1.34 4.69 -0.68 2.38 0 0 Z " fill="#42BB85" transform="translate(58,43)"/>
<path d="M0 0 C4 2 4 2 5 4 C3.02 4.66 1.04 5.32 -1 6 C-1.33 7.65 -1.66 9.3 -2 11 C-3.32 11.33 -4.64 11.66 -6 12 C-6 11.34 -6 10.68 -6 10 C-6.66 9.67 -7.32 9.34 -8 9 C-5.36 6.03 -2.72 3.06 0 0 Z " fill="#55BE93" transform="translate(52,37)"/>
<path d="M0 0 C1.32 0.66 2.64 1.32 4 2 C4 2.33 4 2.66 4 3 C1.69 3.66 -0.62 4.32 -3 5 C-1.125 1.125 -1.125 1.125 0 0 Z M-5 6 C-5 6.99 -5 7.98 -5 9 C-5.66 8.67 -6.32 8.34 -7 8 C-6.34 7.34 -5.68 6.68 -5 6 Z " fill="#48B78F" transform="translate(52,37)"/>
<path d="M0 0 C0.99 0 1.98 0 3 0 C2.67 1.65 2.34 3.3 2 5 C1.01 5 0.02 5 -1 5 C-0.67 3.35 -0.34 1.7 0 0 Z " fill="#63C29D" transform="translate(53,42)"/>
</svg>
